<svg xmlns="http://www.w3.org/2000/svg" width="320" height="130" viewBox="0 0 320 130" role="img" aria-labelledby="title">
  <title id="title">A strand that can fold</title>
  <path d="M24 92C63 105 67 36 111 40s30 62 69 60 29-78 70-72 30 54 47 49" fill="none" stroke="#637e54" stroke-width="3"/>
  <g fill="#eaece2" stroke="#49633e" stroke-width="2">
    <circle cx="25" cy="92" r="5"/><circle cx="56" cy="80" r="5"/><circle cx="77" cy="53" r="5"/>
    <circle cx="110" cy="40" r="5"/><circle cx="138" cy="60" r="5"/><circle cx="151" cy="88" r="5"/>
    <circle cx="181" cy="100" r="5"/><circle cx="208" cy="66" r="5"/><circle cx="229" cy="34" r="5"/>
    <circle cx="259" cy="31" r="5"/><circle cx="279" cy="60" r="5"/><circle cx="296" cy="77" r="5"/>
  </g>
  <g stroke="#9b694b" stroke-width="4" stroke-linecap="round">
    <path d="M77 53l-10-13M138 60l16-8M181 100l3 16M229 34l-6-16M279 60l15-8"/>
  </g>
</svg>
