<svg xmlns="http://www.w3.org/2000/svg" width="640" height="500" viewBox="0 0 640 500" role="img" aria-labelledby="title desc">
<title id="title">Path of the tRNA strand</title><desc id="desc">The 76 points follow the C4′ carbons of PDB 1EHZ; the lines connect consecutive nucleotides.</desc>
<line x1="331.72" y1="187.29" x2="348.28" y2="167.48" stroke="#a8bd82" stroke-width="7" stroke-linecap="round"/>
<circle cx="331.72" cy="187.29" r="5" fill="#dce7b8" stroke="#273e32" stroke-width="1.5"/>
<circle cx="348.28" cy="167.48" r="5" fill="#dce7b8" stroke="#273e32" stroke-width="1.5"/>
<line x1="319.37" y1="207.30" x2="331.72" y2="187.29" stroke="#a8bd82" stroke-width="7" stroke-linecap="round"/>
<line x1="348.28" y1="167.48" x2="365.20" y2="154.52" stroke="#a8bd82" stroke-width="7" stroke-linecap="round"/>
<circle cx="319.37" cy="207.30" r="5" fill="#dce7b8" stroke="#273e32" stroke-width="1.5"/>
<circle cx="336.10" cy="239.88" r="5" fill="#dce7b8" stroke="#273e32" stroke-width="1.5"/>
<circle cx="365.20" cy="154.52" r="5" fill="#dce7b8" stroke="#273e32" stroke-width="1.5"/>
<line x1="332.52" y1="265.84" x2="336.10" y2="239.88" stroke="#a8bd82" stroke-width="7" stroke-linecap="round"/>
<circle cx="337.48" cy="293.79" r="5" fill="#dce7b8" stroke="#273e32" stroke-width="1.5"/>
<line x1="356.40" y1="312.18" x2="337.48" y2="293.79" stroke="#a8bd82" stroke-width="7" stroke-linecap="round"/>
<circle cx="282.05" cy="184.05" r="5" fill="#dce7b8" stroke="#273e32" stroke-width="1.5"/>
<line x1="295.29" y1="160.91" x2="282.05" y2="184.05" stroke="#a8bd82" stroke-width="7" stroke-linecap="round"/>
<circle cx="356.40" cy="312.18" r="5" fill="#dce7b8" stroke="#273e32" stroke-width="1.5"/>
<line x1="337.48" y1="293.79" x2="332.52" y2="265.84" stroke="#a8bd82" stroke-width="7" stroke-linecap="round"/>
<circle cx="295.29" cy="160.91" r="5" fill="#dce7b8" stroke="#273e32" stroke-width="1.5"/>
<line x1="313.94" y1="222.16" x2="319.37" y2="207.30" stroke="#a8bd82" stroke-width="7" stroke-linecap="round"/>
<circle cx="322.27" cy="344.77" r="5" fill="#dce7b8" stroke="#273e32" stroke-width="1.5"/>
<line x1="282.05" y1="184.05" x2="269.77" y2="204.63" stroke="#a8bd82" stroke-width="7" stroke-linecap="round"/>
<circle cx="332.52" cy="265.84" r="5" fill="#dce7b8" stroke="#273e32" stroke-width="1.5"/>
<line x1="336.10" y1="239.88" x2="333.78" y2="231.28" stroke="#a8bd82" stroke-width="7" stroke-linecap="round"/>
<line x1="312.69" y1="144.82" x2="295.29" y2="160.91" stroke="#a8bd82" stroke-width="7" stroke-linecap="round"/>
<line x1="322.27" y1="344.77" x2="342.83" y2="361.44" stroke="#a8bd82" stroke-width="7" stroke-linecap="round"/>
<line x1="365.20" y1="154.52" x2="381.86" y2="151.36" stroke="#a8bd82" stroke-width="7" stroke-linecap="round"/>
<circle cx="342.83" cy="361.44" r="5" fill="#dce7b8" stroke="#273e32" stroke-width="1.5"/>
<line x1="369.47" y1="325.51" x2="356.40" y2="312.18" stroke="#a8bd82" stroke-width="7" stroke-linecap="round"/>
<circle cx="269.77" cy="204.63" r="5" fill="#dce7b8" stroke="#273e32" stroke-width="1.5"/>
<line x1="303.31" y1="329.47" x2="322.27" y2="344.77" stroke="#a8bd82" stroke-width="7" stroke-linecap="round"/>
<circle cx="312.69" cy="144.82" r="5" fill="#dce7b8" stroke="#273e32" stroke-width="1.5"/>
<circle cx="297.22" cy="280.75" r="5" fill="#dce7b8" stroke="#273e32" stroke-width="1.5"/>
<line x1="421.68" y1="181.15" x2="403.32" y2="200.37" stroke="#a8bd82" stroke-width="7" stroke-linecap="round"/>
<circle cx="421.68" cy="181.15" r="5" fill="#dce7b8" stroke="#273e32" stroke-width="1.5"/>
<circle cx="403.32" cy="200.37" r="5" fill="#dce7b8" stroke="#273e32" stroke-width="1.5"/>
<line x1="323.59" y1="267.15" x2="297.22" y2="280.75" stroke="#a8bd82" stroke-width="7" stroke-linecap="round"/>
<circle cx="313.94" cy="222.16" r="5" fill="#dce7b8" stroke="#273e32" stroke-width="1.5"/>
<line x1="333.78" y1="231.28" x2="313.94" y2="222.16" stroke="#a8bd82" stroke-width="7" stroke-linecap="round"/>
<line x1="342.83" y1="361.44" x2="359.91" y2="373.44" stroke="#a8bd82" stroke-width="7" stroke-linecap="round"/>
<circle cx="303.31" cy="329.47" r="5" fill="#dce7b8" stroke="#273e32" stroke-width="1.5"/>
<circle cx="323.59" cy="267.15" r="5" fill="#dce7b8" stroke="#273e32" stroke-width="1.5"/>
<circle cx="381.86" cy="151.36" r="5" fill="#dce7b8" stroke="#273e32" stroke-width="1.5"/>
<circle cx="369.47" cy="325.51" r="5" fill="#dce7b8" stroke="#273e32" stroke-width="1.5"/>
<line x1="403.32" y1="200.37" x2="378.51" y2="208.86" stroke="#a8bd82" stroke-width="7" stroke-linecap="round"/>
<circle cx="333.78" cy="231.28" r="5" fill="#dce7b8" stroke="#273e32" stroke-width="1.5"/>
<line x1="331.94" y1="142.08" x2="312.69" y2="144.82" stroke="#a8bd82" stroke-width="7" stroke-linecap="round"/>
<line x1="269.77" y1="204.63" x2="261.06" y2="218.88" stroke="#a8bd82" stroke-width="7" stroke-linecap="round"/>
<line x1="401.41" y1="165.41" x2="421.68" y2="181.15" stroke="#a8bd82" stroke-width="7" stroke-linecap="round"/>
<line x1="297.22" y1="280.75" x2="282.40" y2="279.40" stroke="#a8bd82" stroke-width="7" stroke-linecap="round"/>
<line x1="381.86" y1="151.36" x2="401.41" y2="165.41" stroke="#a8bd82" stroke-width="7" stroke-linecap="round"/>
<line x1="322.91" y1="240.11" x2="323.59" y2="267.15" stroke="#a8bd82" stroke-width="7" stroke-linecap="round"/>
<circle cx="378.51" cy="208.86" r="5" fill="#dce7b8" stroke="#273e32" stroke-width="1.5"/>
<circle cx="359.91" cy="373.44" r="5" fill="#dce7b8" stroke="#273e32" stroke-width="1.5"/>
<circle cx="167.64" cy="137.62" r="5" fill="#dce7b8" stroke="#273e32" stroke-width="1.5"/>
<line x1="378.51" y1="208.86" x2="351.79" y2="217.84" stroke="#a8bd82" stroke-width="7" stroke-linecap="round"/>
<circle cx="244.45" cy="141.30" r="5" fill="#dce7b8" stroke="#273e32" stroke-width="1.5"/>
<circle cx="401.41" cy="165.41" r="5" fill="#dce7b8" stroke="#273e32" stroke-width="1.5"/>
<circle cx="331.94" cy="142.08" r="5" fill="#dce7b8" stroke="#273e32" stroke-width="1.5"/>
<line x1="296.17" y1="320.57" x2="303.31" y2="329.47" stroke="#a8bd82" stroke-width="7" stroke-linecap="round"/>
<circle cx="351.79" cy="217.84" r="5" fill="#dce7b8" stroke="#273e32" stroke-width="1.5"/>
<line x1="374.76" y1="335.59" x2="369.47" y2="325.51" stroke="#a8bd82" stroke-width="7" stroke-linecap="round"/>
<circle cx="261.06" cy="218.88" r="5" fill="#dce7b8" stroke="#273e32" stroke-width="1.5"/>
<circle cx="322.91" cy="240.11" r="5" fill="#dce7b8" stroke="#273e32" stroke-width="1.5"/>
<line x1="184.84" y1="147.02" x2="167.64" y2="137.62" stroke="#a8bd82" stroke-width="7" stroke-linecap="round"/>
<circle cx="374.78" cy="257.93" r="5" fill="#dce7b8" stroke="#273e32" stroke-width="1.5"/>
<circle cx="282.40" cy="279.40" r="5" fill="#dce7b8" stroke="#273e32" stroke-width="1.5"/>
<line x1="398.34" y1="253.50" x2="374.78" y2="257.93" stroke="#a8bd82" stroke-width="7" stroke-linecap="round"/>
<line x1="359.91" y1="373.44" x2="363.53" y2="384.69" stroke="#a8bd82" stroke-width="7" stroke-linecap="round"/>
<line x1="348.83" y1="152.93" x2="331.94" y2="142.08" stroke="#a8bd82" stroke-width="7" stroke-linecap="round"/>
<line x1="300.29" y1="228.11" x2="322.91" y2="240.11" stroke="#a8bd82" stroke-width="7" stroke-linecap="round"/>
<line x1="244.45" y1="141.30" x2="258.66" y2="137.14" stroke="#a8bd82" stroke-width="7" stroke-linecap="round"/>
<circle cx="304.90" cy="416.67" r="5" fill="#dce7b8" stroke="#273e32" stroke-width="1.5"/>
<circle cx="184.84" cy="147.02" r="5" fill="#dce7b8" stroke="#273e32" stroke-width="1.5"/>
<line x1="351.79" y1="217.84" x2="350.09" y2="200.05" stroke="#a8bd82" stroke-width="7" stroke-linecap="round"/>
<circle cx="398.34" cy="253.50" r="5" fill="#dce7b8" stroke="#273e32" stroke-width="1.5"/>
<line x1="395.81" y1="224.32" x2="398.34" y2="253.50" stroke="#a8bd82" stroke-width="7" stroke-linecap="round"/>
<circle cx="296.17" cy="320.57" r="5" fill="#dce7b8" stroke="#273e32" stroke-width="1.5"/>
<circle cx="395.81" cy="224.32" r="5" fill="#dce7b8" stroke="#273e32" stroke-width="1.5"/>
<line x1="304.90" y1="416.67" x2="297.57" y2="394.64" stroke="#a8bd82" stroke-width="7" stroke-linecap="round"/>
<line x1="374.78" y1="257.93" x2="361.82" y2="275.32" stroke="#a8bd82" stroke-width="7" stroke-linecap="round"/>
<line x1="261.06" y1="218.88" x2="252.77" y2="217.25" stroke="#a8bd82" stroke-width="7" stroke-linecap="round"/>
<circle cx="374.76" cy="335.59" r="5" fill="#dce7b8" stroke="#273e32" stroke-width="1.5"/>
<line x1="205.04" y1="134.65" x2="184.84" y2="147.02" stroke="#a8bd82" stroke-width="7" stroke-linecap="round"/>
<line x1="319.33" y1="435.10" x2="304.90" y2="416.67" stroke="#a8bd82" stroke-width="7" stroke-linecap="round"/>
<circle cx="300.29" cy="228.11" r="5" fill="#dce7b8" stroke="#273e32" stroke-width="1.5"/>
<circle cx="348.83" cy="152.93" r="5" fill="#dce7b8" stroke="#273e32" stroke-width="1.5"/>
<line x1="282.40" y1="279.40" x2="283.99" y2="271.10" stroke="#a8bd82" stroke-width="7" stroke-linecap="round"/>
<circle cx="297.57" cy="394.64" r="5" fill="#dce7b8" stroke="#273e32" stroke-width="1.5"/>
<circle cx="205.04" cy="134.65" r="5" fill="#dce7b8" stroke="#273e32" stroke-width="1.5"/>
<circle cx="319.33" cy="435.10" r="5" fill="#dce7b8" stroke="#273e32" stroke-width="1.5"/>
<circle cx="363.53" cy="384.69" r="5" fill="#dce7b8" stroke="#273e32" stroke-width="1.5"/>
<circle cx="258.66" cy="137.14" r="5" fill="#dce7b8" stroke="#273e32" stroke-width="1.5"/>
<line x1="382.47" y1="206.63" x2="395.81" y2="224.32" stroke="#a8bd82" stroke-width="7" stroke-linecap="round"/>
<circle cx="350.09" cy="200.05" r="5" fill="#dce7b8" stroke="#273e32" stroke-width="1.5"/>
<circle cx="361.82" cy="275.32" r="5" fill="#dce7b8" stroke="#273e32" stroke-width="1.5"/>
<line x1="358.20" y1="175.13" x2="348.83" y2="152.93" stroke="#a8bd82" stroke-width="7" stroke-linecap="round"/>
<line x1="305.49" y1="315.07" x2="296.17" y2="320.57" stroke="#a8bd82" stroke-width="7" stroke-linecap="round"/>
<line x1="297.57" y1="394.64" x2="292.52" y2="373.96" stroke="#a8bd82" stroke-width="7" stroke-linecap="round"/>
<line x1="369.34" y1="345.74" x2="374.76" y2="335.59" stroke="#a8bd82" stroke-width="7" stroke-linecap="round"/>
<line x1="350.09" y1="200.05" x2="358.20" y2="175.13" stroke="#a8bd82" stroke-width="7" stroke-linecap="round"/>
<line x1="295.01" y1="215.65" x2="300.29" y2="228.11" stroke="#a8bd82" stroke-width="7" stroke-linecap="round"/>
<circle cx="252.77" cy="217.25" r="5" fill="#dce7b8" stroke="#273e32" stroke-width="1.5"/>
<line x1="363.53" y1="384.69" x2="349.73" y2="398.68" stroke="#a8bd82" stroke-width="7" stroke-linecap="round"/>
<circle cx="382.47" cy="206.63" r="5" fill="#dce7b8" stroke="#273e32" stroke-width="1.5"/>
<line x1="327.53" y1="414.77" x2="319.33" y2="435.10" stroke="#a8bd82" stroke-width="7" stroke-linecap="round"/>
<circle cx="358.20" cy="175.13" r="5" fill="#dce7b8" stroke="#273e32" stroke-width="1.5"/>
<line x1="258.66" y1="137.14" x2="274.67" y2="147.38" stroke="#a8bd82" stroke-width="7" stroke-linecap="round"/>
<line x1="219.76" y1="139.11" x2="205.04" y2="134.65" stroke="#a8bd82" stroke-width="7" stroke-linecap="round"/>
<circle cx="283.99" cy="271.10" r="5" fill="#dce7b8" stroke="#273e32" stroke-width="1.5"/>
<line x1="361.82" y1="275.32" x2="347.84" y2="289.70" stroke="#a8bd82" stroke-width="7" stroke-linecap="round"/>
<circle cx="292.52" cy="373.96" r="5" fill="#dce7b8" stroke="#273e32" stroke-width="1.5"/>
<line x1="283.99" y1="271.10" x2="302.77" y2="256.26" stroke="#a8bd82" stroke-width="7" stroke-linecap="round"/>
<circle cx="305.49" cy="315.07" r="5" fill="#dce7b8" stroke="#273e32" stroke-width="1.5"/>
<circle cx="369.34" cy="345.74" r="5" fill="#dce7b8" stroke="#273e32" stroke-width="1.5"/>
<circle cx="349.73" cy="398.68" r="5" fill="#dce7b8" stroke="#273e32" stroke-width="1.5"/>
<line x1="252.77" y1="217.25" x2="243.70" y2="205.64" stroke="#a8bd82" stroke-width="7" stroke-linecap="round"/>
<line x1="349.73" y1="398.68" x2="327.53" y2="414.77" stroke="#a8bd82" stroke-width="7" stroke-linecap="round"/>
<circle cx="295.01" cy="215.65" r="5" fill="#dce7b8" stroke="#273e32" stroke-width="1.5"/>
<circle cx="327.53" cy="414.77" r="5" fill="#dce7b8" stroke="#273e32" stroke-width="1.5"/>
<circle cx="347.84" cy="289.70" r="5" fill="#dce7b8" stroke="#273e32" stroke-width="1.5"/>
<line x1="385.63" y1="211.73" x2="382.47" y2="206.63" stroke="#a8bd82" stroke-width="7" stroke-linecap="round"/>
<circle cx="274.67" cy="147.38" r="5" fill="#dce7b8" stroke="#273e32" stroke-width="1.5"/>
<line x1="326.62" y1="303.40" x2="305.49" y2="315.07" stroke="#a8bd82" stroke-width="7" stroke-linecap="round"/>
<circle cx="219.76" cy="139.11" r="5" fill="#dce7b8" stroke="#273e32" stroke-width="1.5"/>
<line x1="292.52" y1="373.96" x2="302.14" y2="361.35" stroke="#a8bd82" stroke-width="7" stroke-linecap="round"/>
<circle cx="302.77" cy="256.26" r="5" fill="#dce7b8" stroke="#273e32" stroke-width="1.5"/>
<line x1="347.84" y1="289.70" x2="326.62" y2="303.40" stroke="#a8bd82" stroke-width="7" stroke-linecap="round"/>
<line x1="290.18" y1="195.39" x2="295.01" y2="215.65" stroke="#a8bd82" stroke-width="7" stroke-linecap="round"/>
<line x1="350.81" y1="350.82" x2="369.34" y2="345.74" stroke="#a8bd82" stroke-width="7" stroke-linecap="round"/>
<line x1="274.67" y1="147.38" x2="286.22" y2="168.40" stroke="#a8bd82" stroke-width="7" stroke-linecap="round"/>
<circle cx="326.62" cy="303.40" r="5" fill="#dce7b8" stroke="#273e32" stroke-width="1.5"/>
<line x1="302.77" y1="256.26" x2="326.15" y2="250.39" stroke="#a8bd82" stroke-width="7" stroke-linecap="round"/>
<circle cx="366.83" cy="227.47" r="5" fill="#dce7b8" stroke="#273e32" stroke-width="1.5"/>
<circle cx="243.70" cy="205.64" r="5" fill="#dce7b8" stroke="#273e32" stroke-width="1.5"/>
<line x1="366.83" y1="227.47" x2="385.63" y2="211.73" stroke="#a8bd82" stroke-width="7" stroke-linecap="round"/>
<line x1="349.16" y1="239.42" x2="366.83" y2="227.47" stroke="#a8bd82" stroke-width="7" stroke-linecap="round"/>
<line x1="227.91" y1="158.11" x2="219.76" y2="139.11" stroke="#a8bd82" stroke-width="7" stroke-linecap="round"/>
<circle cx="385.63" cy="211.73" r="5" fill="#dce7b8" stroke="#273e32" stroke-width="1.5"/>
<circle cx="349.16" cy="239.42" r="5" fill="#dce7b8" stroke="#273e32" stroke-width="1.5"/>
<circle cx="286.22" cy="168.40" r="5" fill="#dce7b8" stroke="#273e32" stroke-width="1.5"/>
<line x1="326.15" y1="250.39" x2="349.16" y2="239.42" stroke="#a8bd82" stroke-width="7" stroke-linecap="round"/>
<line x1="286.22" y1="168.40" x2="290.18" y2="195.39" stroke="#a8bd82" stroke-width="7" stroke-linecap="round"/>
<circle cx="326.15" cy="250.39" r="5" fill="#dce7b8" stroke="#273e32" stroke-width="1.5"/>
<circle cx="290.18" cy="195.39" r="5" fill="#dce7b8" stroke="#273e32" stroke-width="1.5"/>
<circle cx="302.14" cy="361.35" r="5" fill="#dce7b8" stroke="#273e32" stroke-width="1.5"/>
<line x1="243.70" y1="205.64" x2="235.57" y2="183.98" stroke="#a8bd82" stroke-width="7" stroke-linecap="round"/>
<circle cx="350.81" cy="350.82" r="5" fill="#dce7b8" stroke="#273e32" stroke-width="1.5"/>
<line x1="302.14" y1="361.35" x2="325.16" y2="354.91" stroke="#a8bd82" stroke-width="7" stroke-linecap="round"/>
<circle cx="227.91" cy="158.11" r="5" fill="#dce7b8" stroke="#273e32" stroke-width="1.5"/>
<line x1="325.16" y1="354.91" x2="350.81" y2="350.82" stroke="#a8bd82" stroke-width="7" stroke-linecap="round"/>
<line x1="235.57" y1="183.98" x2="227.91" y2="158.11" stroke="#a8bd82" stroke-width="7" stroke-linecap="round"/>
<circle cx="235.57" cy="183.98" r="5" fill="#dce7b8" stroke="#273e32" stroke-width="1.5"/>
<circle cx="325.16" cy="354.91" r="5" fill="#dce7b8" stroke="#273e32" stroke-width="1.5"/>
</svg>